<?xml version="1.0" standalone="no"?>
<!DOCTYPE svg PUBLIC "-//W3C//DTD SVG 20010904//EN"
 "http://www.w3.org/TR/2001/REC-SVG-20010904/DTD/svg10.dtd">
<svg version="1.0" xmlns="http://www.w3.org/2000/svg"
 width="990.000000pt" height="990.000000pt" viewBox="0 0 990.000000 990.000000"
 preserveAspectRatio="xMidYMid meet">
<metadata>
Created by potrace 1.14, written by Peter Selinger 2001-2017
</metadata>
<g transform="translate(0.000000,990.000000) scale(0.100000,-0.100000)"
fill="#000000" stroke="none">
<path d="M4975 9534 c5 -18 1 -21 -22 -19 -37 2 -55 -5 -50 -19 3 -7 -4 -12
-14 -12 -13 0 -15 3 -7 13 7 9 7 13 -1 13 -6 0 -14 -7 -17 -15 -5 -11 -11 -12
-24 -5 -16 9 -18 7 -14 -18 l4 -27 -15 25 c-8 14 -14 19 -15 13 0 -7 -7 -13
-16 -13 -10 0 -14 -6 -11 -14 3 -9 -4 -21 -19 -30 -13 -9 -24 -13 -24 -10 0 4
-8 -1 -19 -10 -16 -15 -19 -15 -24 -2 -4 10 -1 13 9 9 7 -3 14 0 14 7 0 7 7
10 18 5 13 -5 14 -4 5 6 -9 9 -16 9 -26 1 -8 -7 -16 -10 -18 -8 -2 3 -15 -4
-29 -15 -19 -16 -20 -18 -4 -10 15 7 21 7 21 -3 0 -16 -30 -14 -51 3 -11 9
-16 10 -16 2 0 -6 5 -11 11 -11 8 0 8 -5 -1 -15 -7 -8 -23 -13 -36 -11 -16 3
-21 1 -18 -9 4 -10 -1 -12 -17 -8 -18 5 -21 3 -16 -10 4 -11 2 -14 -8 -10 -8
3 -13 8 -10 12 2 4 -2 8 -10 8 -8 0 -12 -4 -10 -8 3 -4 -11 -7 -30 -7 -20 0
-35 5 -35 12 -1 6 -8 0 -16 -14 -8 -14 -13 -17 -10 -7 3 10 2 16 -3 12 -5 -3
-12 1 -15 7 -3 7 -4 4 -1 -7 4 -16 -1 -20 -25 -21 -17 -1 -30 4 -30 10 0 8 -2
8 -8 0 -9 -13 -45 -27 -37 -15 3 5 0 13 -6 17 -8 4 -9 3 -5 -4 4 -7 2 -12 -4
-12 -6 0 -8 -5 -4 -12 6 -10 5 -10 -7 -1 -12 10 -18 10 -28 0 -11 -10 -12 -7
-7 13 l7 25 -14 -24 c-11 -18 -16 -20 -20 -10 -4 11 -6 11 -6 1 -1 -7 -5 -10
-11 -7 -5 3 -10 1 -10 -4 0 -6 -7 -11 -16 -11 -8 0 -13 4 -9 9 3 5 1 13 -5 16
-6 4 -9 1 -8 -7 2 -8 -5 -12 -20 -11 -15 2 -21 -1 -16 -9 5 -7 3 -8 -7 -2 -20
12 -40 14 -33 3 3 -5 10 -6 16 -3 7 4 8 2 4 -5 -4 -6 -12 -9 -17 -5 -24 14
-69 12 -78 -4 -7 -11 -11 -12 -11 -4 0 7 -5 10 -10 7 -6 -4 -8 -10 -6 -14 3
-4 -11 -6 -31 -4 -20 1 -40 0 -46 -4 -15 -9 -86 -10 -81 -1 3 4 1 8 -5 8 -5 0
-13 -4 -16 -10 -3 -5 -11 -10 -16 -10 -6 0 -8 4 -4 9 3 5 -7 3 -22 -4 -16 -8
-40 -12 -55 -11 -16 2 -28 -2 -28 -8 0 -6 -5 -4 -10 4 -9 13 -10 13 -10 0 0
-8 -9 -21 -20 -28 -17 -11 -21 -10 -27 4 -5 15 -8 14 -15 -5 -5 -15 -14 -21
-23 -17 -14 5 -20 -5 -16 -27 1 -5 -3 -6 -9 -2 -6 3 -8 10 -5 15 3 5 0 12 -6
16 -7 4 -9 3 -5 -4 8 -13 -5 -21 -38 -24 -20 -2 -23 -5 -13 -17 10 -12 9 -13
-10 -2 -21 11 -27 8 -25 -10 1 -4 -8 -5 -19 -2 -11 3 -19 2 -17 -3 2 -5 -1 -9
-7 -9 -5 0 -9 4 -7 8 1 5 -2 6 -7 2 -6 -3 -7 -13 -4 -22 4 -11 3 -14 -5 -9 -7
4 -12 2 -12 -4 0 -6 -5 -8 -10 -5 -6 4 -7 11 -4 17 4 6 2 8 -4 4 -6 -3 -9 -16
-7 -27 4 -17 2 -19 -10 -9 -13 11 -19 7 -17 -11 1 -4 -6 -6 -16 -5 -10 0 -16
-6 -16 -16 1 -10 -3 -15 -9 -11 -6 4 -8 0 -4 -10 3 -9 2 -19 -4 -22 -5 -4 -8
-1 -7 6 2 6 -3 14 -10 16 -14 6 -4 -28 12 -39 6 -4 -4 -6 -22 -4 -37 4 -54
-10 -20 -17 22 -4 22 -4 -2 -6 l-25 -2 25 -15 c25 -15 25 -15 1 -8 -14 4 -21
2 -17 -4 9 -15 -17 -32 -34 -22 -16 10 -50 -14 -50 -37 0 -7 -5 -13 -11 -13
-5 0 -7 -4 -4 -10 3 -6 -1 -7 -9 -4 -10 4 -16 1 -16 -7 0 -7 -3 -9 -7 -5 -4 4
3 15 16 25 18 14 21 20 11 26 -8 5 -11 4 -7 -2 6 -10 -9 -22 -24 -19 -12 2
-49 -36 -44 -45 3 -4 0 -11 -6 -15 -7 -4 -9 -3 -5 4 3 6 2 13 -4 17 -5 3 -10
-3 -10 -14 0 -10 6 -22 13 -25 6 -3 2 -3 -9 -1 -14 4 -24 0 -28 -11 -4 -10
-12 -14 -24 -9 -13 5 -14 4 -5 -6 8 -8 16 -9 25 -2 19 15 47 12 41 -5 -5 -11
-7 -11 -14 0 -8 12 -13 4 -10 -15 1 -5 -3 -6 -9 -2 -9 5 -14 -6 -12 -26 1 -3
-10 -5 -24 -3 -13 1 -22 -1 -19 -6 5 -8 -29 -43 -36 -35 -3 2 -5 -4 -6 -15 -1
-14 6 -10 31 17 27 29 32 32 32 15 0 -11 -5 -18 -12 -15 -13 5 -46 -36 -38
-48 2 -4 0 -11 -6 -14 -8 -5 -7 -12 2 -23 10 -14 10 -15 -2 -4 -8 6 -17 12
-21 12 -10 0 -18 -39 -9 -45 5 -3 10 3 12 12 3 15 5 14 10 -4 3 -13 2 -21 -4
-20 -6 1 -13 -4 -16 -12 -3 -10 1 -12 18 -8 l22 6 -21 -20 c-24 -23 -29 -38
-6 -19 9 7 18 10 22 6 3 -3 1 -6 -5 -6 -7 0 -12 -7 -12 -15 0 -9 -6 -15 -12
-14 -29 3 -49 -2 -43 -11 4 -6 -6 -10 -22 -11 -15 0 -22 -3 -15 -6 20 -8 14
-20 -10 -18 -13 2 -22 8 -20 14 1 6 -2 11 -8 11 -9 0 -14 -14 -11 -32 0 -5 -3
-8 -9 -8 -5 0 -10 6 -10 13 0 6 -5 4 -11 -6 -6 -9 -14 -15 -19 -12 -4 3 -6 -5
-3 -17 4 -19 3 -20 -6 -8 -10 14 -12 13 -15 -9 0 -5 -4 -12 -8 -16 -4 -4 -5 8
-3 26 3 25 2 30 -5 18 -5 -9 -7 -27 -5 -40 3 -14 -3 -31 -15 -44 -16 -17 -17
-22 -6 -22 8 0 14 5 13 10 -1 5 4 12 11 14 11 4 12 1 3 -16 -7 -12 -22 -21
-34 -21 -18 0 -19 -2 -7 -10 13 -8 12 -10 -2 -10 -10 0 -18 -5 -18 -11 0 -5 5
-7 12 -3 7 4 8 3 4 -4 -4 -7 -16 -12 -27 -12 -11 0 -18 -4 -14 -10 3 -5 13 -7
23 -4 14 5 15 4 2 -5 -11 -8 -12 -11 -2 -11 7 0 10 -5 6 -11 -4 -8 -9 -7 -15
2 -4 8 -21 15 -36 16 -20 2 -24 0 -13 -7 8 -5 18 -6 22 -4 4 3 8 -2 8 -11 0
-9 -4 -14 -9 -11 -5 3 -11 -5 -13 -19 -3 -13 -1 -22 3 -19 5 3 9 0 9 -5 0 -6
-5 -11 -11 -11 -5 0 -7 -6 -3 -12 5 -8 0 -7 -11 2 -17 14 -18 14 -5 -10 12
-22 11 -24 -2 -13 -8 7 -19 9 -23 5 -5 -4 -5 -2 -2 4 4 7 -1 18 -11 25 -15 13
-16 12 -4 -2 10 -14 10 -20 -3 -33 -9 -9 -21 -13 -27 -10 -5 4 -5 -4 2 -16 10
-19 10 -22 -2 -17 -11 4 -14 -1 -12 -20 2 -17 -2 -23 -11 -19 -8 3 -17 0 -21
-7 -4 -7 -4 -9 1 -5 4 4 16 3 27 -3 20 -11 13 -22 -27 -45 -10 -5 -19 -18 -21
-29 -1 -10 -9 -22 -16 -26 -9 -6 -10 -9 -1 -9 12 0 31 26 31 45 1 17 19 16 33
-2 13 -17 13 -17 -5 -3 -18 14 -19 13 -13 -3 4 -10 3 -16 -1 -13 -4 3 -19 -13
-32 -35 -24 -39 -34 -46 -43 -31 -2 4 -2 1 0 -6 2 -8 -6 -16 -17 -19 -18 -5
-19 -7 -5 -17 15 -11 14 -14 -3 -36 -19 -25 -19 -56 0 -44 5 4 3 -5 -6 -18 -9
-14 -13 -28 -9 -32 5 -4 2 -6 -6 -4 -7 1 -16 -3 -18 -10 -3 -8 2 -10 14 -6 14
5 15 4 4 -4 -18 -13 -43 -4 -34 12 3 6 2 7 -2 3 -12 -10 -15 -38 -4 -31 5 3 9
0 9 -5 0 -6 -10 -11 -22 -11 -18 0 -20 -2 -8 -10 8 -5 11 -12 8 -16 -4 -4 -3
-16 3 -27 9 -15 8 -18 -2 -12 -9 6 -11 3 -6 -8 3 -9 2 -19 -3 -22 -5 -3 -7 7
-5 23 2 15 0 34 -4 41 -4 7 -7 -11 -7 -40 1 -31 7 -54 14 -57 7 -2 12 -8 12
-13 0 -5 -10 -4 -22 2 -21 11 -22 11 -9 -4 9 -11 10 -17 2 -17 -6 0 -11 -5
-11 -11 0 -8 5 -7 15 1 13 10 19 10 33 -4 10 -9 22 -13 27 -9 4 5 5 2 1 -5 -4
-7 -11 -10 -15 -7 -5 2 -16 -4 -25 -14 -17 -18 -16 -20 1 -30 10 -6 12 -11 6
-11 -7 0 -13 -5 -13 -11 0 -5 5 -7 12 -3 6 4 8 3 4 -4 -3 -5 0 -13 6 -16 7 -3
3 -3 -9 0 -25 6 -28 -2 -13 -26 6 -10 10 -11 10 -3 0 7 11 12 24 11 17 -2 22
-7 18 -20 -2 -10 -8 -15 -13 -12 -5 3 -6 11 -2 17 4 7 0 6 -10 -2 -18 -14 -23
-26 -8 -16 5 3 12 1 16 -5 4 -6 10 -8 15 -5 4 3 16 2 25 -1 13 -5 14 -9 4 -15
-10 -6 -10 -11 2 -26 13 -16 13 -17 -3 -4 -17 13 -26 2 -11 -13 13 -13 10 -44
-4 -39 -11 4 -11 8 -1 21 12 13 11 14 -9 2 -20 -13 -20 -15 -5 -27 11 -8 12
-12 5 -13 -7 0 -13 -5 -13 -11 0 -5 5 -7 10 -4 16 10 11 -1 -7 -16 -15 -12
-16 -12 -8 1 8 13 7 13 -8 1 -19 -15 -23 -41 -6 -41 5 0 8 -4 4 -10 -3 -5 -12
-7 -20 -3 -18 6 -19 -6 -4 -27 9 -13 10 -12 5 2 -3 12 -1 15 10 11 13 -5 13
-8 -2 -24 -18 -20 -29 -25 -19 -10 3 5 1 12 -4 15 -10 7 -9 -9 4 -37 8 -19
-11 -50 -26 -41 -5 3 -6 -2 -3 -11 5 -13 9 -13 23 -3 14 12 15 11 1 -6 -21
-27 -21 -44 2 -52 14 -4 17 -9 9 -13 -6 -4 -13 -17 -16 -30 -2 -12 0 -19 6
-16 5 4 7 10 5 14 -3 4 1 8 9 8 13 0 13 -3 0 -17 -18 -20 -20 -40 -3 -40 6 0
3 -7 -8 -16 -10 -8 -14 -13 -8 -10 6 3 11 -1 11 -8 0 -8 -6 -12 -12 -10 -6 3
-12 -2 -12 -10 0 -8 4 -13 8 -11 8 6 17 -26 12 -43 -3 -6 -9 -9 -15 -6 -5 4
-5 -4 2 -16 10 -18 9 -21 -1 -15 -9 6 -11 3 -6 -8 4 -10 -1 -21 -11 -27 -15
-10 -14 -10 4 -5 18 4 21 1 19 -17 -4 -38 -5 -39 -15 -33 -6 3 -7 -1 -4 -9 3
-9 9 -16 13 -16 4 0 8 -7 8 -15 0 -8 -5 -11 -10 -8 -7 4 -8 -1 -3 -12 5 -14 4
-16 -7 -7 -10 9 -14 8 -14 -3 0 -8 6 -15 13 -15 7 0 16 -4 19 -10 3 -5 0 -7
-8 -4 -8 3 -14 -1 -14 -10 0 -8 6 -12 15 -8 9 3 13 1 9 -5 -4 -6 -4 -13 0 -16
5 -2 2 -2 -5 0 -8 1 -12 -3 -10 -9 3 -7 11 -13 18 -13 7 0 15 -6 17 -12 3 -7
0 -13 -7 -13 -6 0 -8 5 -4 12 4 6 3 8 -4 4 -13 -8 -7 -47 10 -57 7 -4 16 -5
21 -2 5 3 7 0 5 -8 -3 -8 1 -21 8 -30 12 -13 12 -16 -1 -16 -8 0 -12 4 -10 8
3 4 -2 10 -10 13 -12 4 -13 2 -6 -13 6 -10 7 -22 3 -26 -4 -5 1 -5 10 -2 13 4
15 2 11 -10 -5 -12 -3 -14 7 -8 9 5 11 4 6 -4 -6 -8 -12 -9 -20 -2 -9 8 -13 7
-13 -4 0 -8 4 -15 9 -15 4 0 8 -5 8 -11 0 -5 -6 -7 -12 -3 -7 4 -5 -2 5 -13 9
-11 14 -23 10 -27 -5 -4 -8 -13 -8 -19 0 -7 -8 -11 -17 -9 -9 1 -19 -2 -23 -8
-3 -5 0 -7 8 -4 21 8 31 -14 16 -32 -10 -12 -10 -15 1 -12 8 2 15 -3 16 -9 1
-7 2 -17 3 -23 0 -5 6 -10 12 -10 8 0 8 4 2 13 -6 6 -9 20 -8 30 2 9 0 15 -4
13 -4 -3 -7 4 -7 15 0 18 1 19 12 4 7 -9 11 -26 9 -36 -2 -12 3 -23 11 -26 13
-5 13 -7 2 -14 -11 -8 -11 -10 1 -18 11 -7 10 -13 -4 -34 -16 -25 -16 -25 8
-23 14 2 24 -2 24 -10 0 -7 -7 -10 -16 -7 -13 5 -13 3 -4 -7 14 -15 6 -42 -11
-34 -6 3 0 -5 14 -17 l25 -22 -25 6 c-23 6 -24 5 -6 -8 10 -8 22 -13 25 -11 3
2 6 -9 7 -24 1 -22 -3 -27 -15 -23 -11 4 -11 1 3 -9 15 -12 16 -17 6 -23 -9
-6 -11 -4 -5 5 5 9 4 11 -4 6 -6 -4 -9 -12 -5 -17 3 -5 9 -7 13 -4 5 2 17 -2
27 -10 18 -13 17 -14 -6 -8 l-25 6 24 -22 c13 -11 20 -21 15 -21 -6 0 -15 5
-20 10 -7 7 -11 6 -11 -4 0 -8 5 -14 11 -13 6 1 10 -4 8 -12 -3 -14 15 -31 33
-31 6 0 3 5 -5 10 -8 5 -10 10 -5 10 6 0 17 -5 25 -10 10 -6 11 -10 3 -10 -7
0 -13 -5 -13 -11 0 -5 5 -7 10 -4 16 10 11 -1 -7 -16 -10 -8 -14 -9 -10 -2 4
6 3 14 -2 17 -5 4 -8 -2 -6 -11 1 -10 8 -17 15 -15 8 2 10 -3 6 -13 -3 -9 -2
-14 2 -11 4 3 14 -4 21 -16 10 -16 10 -18 0 -12 -9 5 -10 2 -6 -10 4 -9 3 -15
-1 -12 -5 3 -6 -8 -4 -25 3 -20 0 -29 -9 -30 -17 -2 -32 -5 -39 -9 -14 -8 -49
-6 -43 3 3 5 0 8 -8 5 -17 -6 -39 15 -40 39 0 16 -1 16 -9 -2 -8 -18 -9 -18
-9 -2 -1 18 -30 21 -42 4 -4 -5 -12 6 -18 25 l-12 33 -14 -25 c-7 -14 -17 -23
-22 -21 -4 2 -19 8 -33 13 -20 7 -23 7 -12 -3 19 -20 15 -28 -13 -25 -43 5
-81 -62 -47 -83 11 -7 10 -10 -3 -14 -9 -4 -14 -3 -11 2 3 5 -1 11 -9 14 -9 4
-12 1 -8 -10 3 -8 0 -19 -8 -25 -11 -8 -10 -9 3 -4 19 6 20 4 22 -79 1 -27 5
-55 9 -62 4 -6 2 -15 -4 -19 -7 -4 -9 -3 -6 3 4 6 0 14 -8 17 -12 4 -13 2 -6
-13 6 -10 7 -22 3 -26 -4 -5 -1 -5 6 -1 9 5 12 0 10 -21 -1 -15 4 -39 12 -53
12 -23 12 -24 -3 -11 -22 17 -22 8 -1 -14 12 -12 13 -19 4 -30 -9 -11 -7 -18
9 -34 22 -22 28 -37 12 -26 -5 3 -13 1 -16 -5 -4 -6 -3 -9 2 -8 4 2 9 -1 11
-7 2 -5 11 -18 20 -28 14 -16 14 -17 0 -12 -9 4 -19 1 -24 -6 -4 -8 -3 -10 4
-5 7 4 12 1 13 -6 0 -7 2 -23 5 -36 3 -16 0 -21 -8 -16 -7 5 -8 3 -4 -5 5 -7
14 -10 22 -7 8 3 14 1 14 -4 0 -6 -7 -10 -16 -10 -8 0 -13 -4 -9 -10 3 -5 13
-7 23 -4 10 4 13 2 7 -3 -10 -7 -12 -25 -5 -38 1 -3 3 -13 4 -22 1 -10 5 -25
11 -33 7 -12 6 -13 -6 -3 -12 10 -15 8 -15 -7 0 -10 4 -16 8 -14 4 3 8 -2 8
-10 0 -9 5 -16 10 -16 6 0 10 -5 10 -11 0 -5 -6 -7 -13 -3 -6 4 -5 -1 4 -12 9
-10 19 -26 23 -34 4 -8 0 -6 -10 5 -16 19 -16 19 -10 1 4 -11 1 -23 -6 -29
-10 -7 -9 -8 2 -4 20 6 55 -49 38 -59 -6 -4 -9 -3 -5 2 3 5 -2 18 -10 29 -14
18 -15 18 -9 1 3 -10 1 -25 -5 -32 -9 -12 -9 -13 4 -9 20 8 36 -21 39 -72 1
-7 6 -13 11 -13 5 0 3 -8 -4 -17 -7 -10 -9 -15 -5 -11 14 12 36 -25 24 -39
-10 -12 1 -18 25 -14 5 1 6 -3 2 -9 -3 -6 -12 -7 -18 -4 -7 4 0 -4 16 -19 15
-14 27 -30 27 -34 0 -4 -7 1 -15 11 -8 11 -15 15 -15 9 0 -7 7 -18 15 -26 8
-8 11 -18 7 -22 -4 -5 0 -6 9 -3 12 5 15 0 14 -23 -1 -17 2 -32 7 -35 4 -3 5
-10 2 -16 -4 -7 -2 -8 5 -4 8 6 9 12 2 20 -8 9 -7 13 3 13 8 0 12 -10 11 -29
-2 -25 5 -33 28 -29 5 1 6 -3 2 -9 -3 -6 -12 -8 -18 -4 -7 3 -3 -2 8 -11 12
-9 19 -25 17 -38 -4 -19 -2 -20 14 -7 18 15 18 14 0 -14 -10 -16 -14 -26 -10
-23 5 3 16 -2 24 -11 13 -14 12 -15 -3 -9 -9 3 -17 2 -17 -3 0 -6 5 -10 11
-10 8 0 7 -5 -1 -15 -11 -13 -10 -14 4 -9 9 3 16 1 16 -6 0 -6 5 -8 12 -4 8 5
8 3 2 -7 -11 -17 -14 -119 -4 -119 4 0 8 -12 8 -26 0 -15 13 -40 33 -62 19
-20 23 -28 10 -17 l-24 20 12 -22 c6 -13 16 -23 21 -23 6 0 10 -7 10 -16 0
-12 6 -15 21 -11 16 4 18 3 8 -9 -8 -10 -8 -14 0 -14 6 0 11 -8 12 -17 0 -10
3 -13 6 -6 3 9 13 5 31 -12 14 -13 29 -22 34 -19 4 3 8 0 8 -6 0 -7 7 -9 16
-6 8 3 12 2 9 -4 -6 -9 8 -15 29 -11 5 1 17 -6 27 -15 11 -10 19 -12 19 -6 0
7 5 12 10 12 6 0 10 -8 10 -17 0 -15 2 -16 10 -3 6 10 10 11 10 3 0 -7 3 -12
8 -11 18 5 52 -15 52 -31 0 -9 6 -23 13 -30 10 -11 9 -12 -2 -6 -16 9 -9 -6
18 -40 15 -18 15 -19 0 -7 -14 11 -16 9 -13 -14 1 -15 9 -31 16 -35 10 -7 10
-9 -2 -9 -13 0 -13 -1 0 -10 13 -9 13 -10 0 -10 -13 0 -13 -2 -1 -9 8 -5 11
-16 8 -25 -4 -11 -1 -16 11 -17 14 0 14 -2 -3 -9 -11 -5 -15 -9 -8 -9 6 -1 10
-10 8 -21 -2 -11 0 -20 5 -20 4 0 6 -9 3 -20 -3 -11 0 -27 7 -35 7 -8 9 -15 4
-15 -5 0 -2 -5 6 -10 12 -8 12 -10 1 -10 -10 0 -11 -3 -2 -14 8 -9 8 -16 2
-20 -7 -5 -7 -15 1 -31 6 -14 16 -21 22 -18 6 4 5 -1 -3 -10 -7 -9 -10 -17 -5
-17 5 0 2 -5 -6 -10 -13 -8 -12 -10 3 -10 15 0 16 -3 7 -20 -8 -14 -8 -20 0
-20 6 0 8 -5 5 -10 -4 -6 -1 -17 5 -25 6 -8 9 -19 5 -25 -3 -5 -1 -10 6 -10 8
0 7 -5 -2 -17 -10 -11 -10 -14 -1 -9 8 5 12 -1 12 -18 0 -14 6 -26 13 -26 8 0
7 -3 -3 -9 -8 -6 -19 -7 -25 -3 -5 3 -4 -2 4 -11 15 -18 26 -23 16 -7 -3 6 -1
10 4 10 7 0 9 -16 7 -40 -2 -22 0 -37 5 -34 5 3 7 9 4 14 -3 5 -2 11 3 14 4 2
8 -6 8 -20 0 -13 -4 -24 -8 -24 -5 0 -3 -6 4 -14 7 -8 17 -11 22 -8 5 3 6 0 2
-7 -6 -8 -12 -9 -20 -2 -9 8 -13 7 -13 -4 0 -7 3 -14 6 -13 18 2 31 -3 31 -13
0 -5 -4 -8 -9 -4 -5 3 -13 1 -16 -5 -4 -6 -3 -10 2 -9 20 4 24 -2 12 -18 -10
-11 -10 -14 -1 -9 8 5 12 -1 12 -18 0 -14 5 -26 10 -26 6 0 10 -8 10 -17 0
-14 -2 -15 -9 -5 -7 11 -9 10 -14 -3 -5 -11 -3 -14 5 -9 8 5 9 2 4 -11 -5 -15
-4 -16 9 -5 13 11 16 11 13 0 -2 -8 -12 -22 -22 -30 -16 -14 -17 -17 -3 -17 9
0 14 4 11 9 -3 4 1 8 8 8 9 0 13 -14 13 -43 0 -39 -2 -43 -20 -40 -16 4 -17 3
-5 -6 8 -6 15 -16 15 -23 1 -7 7 -12 15 -10 10 2 11 0 3 -10 -6 -7 -9 -21 -8
-30 2 -10 -1 -18 -5 -18 -5 0 -8 10 -7 23 1 12 -2 23 -8 25 -12 3 -14 -17 -3
-40 5 -10 4 -19 -2 -23 -5 -3 -10 -11 -10 -18 0 -6 7 -2 15 9 15 19 15 19 8
-1 l-6 -20 24 20 24 20 -18 -22 c-12 -13 -16 -27 -11 -35 6 -10 5 -11 -8 -1
-15 13 -28 8 -28 -11 0 -6 5 -4 10 4 7 11 10 4 10 -27 0 -25 -5 -43 -11 -43
-8 0 -8 -5 1 -15 7 -8 10 -22 6 -30 -3 -8 -1 -15 4 -15 6 0 10 -5 10 -11 0 -5
-4 -7 -10 -4 -6 3 -7 -1 -4 -9 3 -9 11 -13 17 -9 6 4 7 1 3 -6 -5 -7 -14 -10
-20 -8 -7 3 -13 -1 -13 -8 0 -7 9 -11 21 -9 12 3 15 2 9 -2 -7 -3 -13 -10 -13
-16 0 -6 -8 -17 -17 -24 -15 -12 -16 -13 -2 -8 25 8 50 -48 28 -62 -6 -4 -6
-11 1 -19 9 -11 6 -12 -12 -9 -22 5 -22 5 2 -10 14 -8 19 -15 11 -16 -10 0
-12 -13 -9 -50 4 -39 2 -50 -8 -46 -8 3 -11 0 -8 -9 3 -8 13 -11 22 -9 15 5
14 4 -1 -6 -13 -9 -15 -15 -7 -31 8 -14 8 -19 -1 -17 -14 4 -22 -39 -8 -47 7
-5 6 -11 -2 -21 -9 -11 -8 -14 2 -14 8 0 5 -6 -7 -15 -12 -9 -13 -13 -4 -10
11 4 16 -1 16 -15 0 -11 -4 -20 -8 -20 -4 0 -8 5 -8 10 0 6 -6 10 -12 10 -7
-1 -2 -10 11 -20 16 -14 19 -20 8 -20 -23 0 -26 -22 -5 -55 20 -33 23 -49 9
-40 -5 3 -12 1 -16 -5 -4 -6 -12 -7 -18 -4 -7 4 -8 3 -4 -2 5 -5 14 -9 20 -9
15 0 17 -25 4 -42 -6 -9 -4 -15 6 -19 9 -3 13 -12 10 -21 -4 -10 -2 -14 5 -9
6 3 13 2 17 -3 3 -6 -3 -8 -13 -6 -10 2 -25 -1 -33 -7 -11 -8 -10 -9 4 -4 9 3
17 1 17 -5 0 -6 6 -7 13 -3 8 6 8 3 -2 -9 -7 -9 -10 -24 -7 -33 5 -14 4 -15
-9 -4 -12 10 -13 16 -4 26 7 9 8 14 1 14 -19 0 -20 -28 -2 -48 15 -16 16 -21
5 -26 -7 -2 -16 -1 -19 5 -2 5 -3 4 -1 -3 1 -7 8 -12 14 -10 6 1 11 -2 11 -8
0 -5 -4 -10 -8 -10 -5 0 -13 -10 -19 -22 -6 -15 -12 -18 -17 -10 -4 7 -2 12 3
12 6 0 11 5 11 11 0 8 -4 8 -14 -1 -8 -6 -13 -17 -10 -25 3 -7 0 -16 -7 -21
-8 -4 -10 -3 -5 4 4 7 2 12 -5 12 -7 0 -9 -8 -6 -21 5 -19 4 -20 -12 -5 -17
15 -19 15 -32 -1 -13 -16 -12 -17 4 -4 11 9 17 10 17 2 0 -6 -6 -12 -12 -13
-42 -5 -85 -23 -91 -40 -3 -8 -6 -5 -7 7 -2 17 -3 16 -9 -5 -4 -15 -14 -24
-24 -24 -9 1 -17 -3 -17 -10 0 -6 -5 -4 -10 4 -9 13 -10 13 -11 0 -1 -8 -1
-18 0 -22 0 -4 -7 -4 -16 -1 -11 4 -13 8 -5 11 7 2 12 8 12 14 0 6 -6 5 -15
-2 -9 -7 -13 -20 -10 -29 3 -8 3 -12 -1 -8 -4 4 -14 1 -23 -6 -14 -10 -14 -10
-3 5 9 11 10 18 2 23 -6 4 -9 1 -8 -7 2 -7 -5 -12 -15 -12 -18 2 -18 1 0 -19
10 -11 12 -17 6 -13 -7 4 -22 9 -34 11 -17 4 -19 2 -9 -10 10 -11 10 -15 1
-15 -7 0 -9 -5 -5 -12 5 -7 3 -8 -5 -3 -8 4 -18 -1 -27 -14 -8 -12 -21 -21
-29 -21 -7 0 -16 -6 -18 -12 -4 -10 -8 -9 -16 2 -6 8 -11 10 -11 4 0 -5 3 -14
8 -20 4 -5 5 -8 3 -6 -2 1 -14 -6 -25 -15 -12 -10 -15 -11 -9 -3 20 22 15 32
-5 13 -13 -13 -16 -22 -9 -31 8 -10 5 -11 -17 -3 -21 9 -26 8 -26 -5 0 -9 -5
-12 -12 -8 -8 5 -9 2 -4 -12 4 -10 4 -15 0 -11 -4 4 -13 2 -21 -4 -7 -6 -22
-9 -33 -6 -11 3 -18 1 -14 -4 3 -5 0 -9 -6 -9 -6 0 -8 -5 -4 -11 4 -7 -2 -6
-17 2 -22 11 -23 11 -11 -4 12 -14 11 -16 -7 -12 -15 3 -21 -1 -21 -13 0 -15
-2 -15 -10 -2 -8 13 -10 12 -10 -4 0 -13 -5 -17 -20 -13 -11 3 -18 1 -15 -4 4
-5 -4 -19 -16 -31 -12 -13 -18 -16 -14 -8 7 12 6 13 -7 3 -8 -7 -18 -10 -22
-6 -4 4 -4 0 0 -10 4 -11 1 -17 -10 -18 -30 -3 -34 -4 -43 -13 -4 -5 -3 -6 4
-2 6 3 14 2 18 -3 3 -6 -6 -8 -21 -5 -20 4 -25 1 -21 -10 4 -11 -1 -14 -21
-11 -15 2 -21 2 -14 -1 6 -3 12 -10 12 -15 0 -6 -5 -7 -11 -4 -6 4 -17 -1 -25
-11 -13 -18 -14 -18 -8 1 6 20 5 20 -10 1 -9 -11 -29 -21 -46 -23 -37 -4 -70
-20 -70 -33 0 -6 -5 -10 -11 -10 -5 0 -7 6 -3 13 5 8 2 8 -9 -2 -19 -15 -23
-26 -5 -15 7 4 8 3 4 -4 -4 -7 -14 -12 -22 -12 -8 0 -13 -4 -10 -8 3 -5 -1 -9
-9 -9 -8 0 -12 4 -9 9 3 4 1 8 -4 8 -5 0 -12 -10 -16 -22 -5 -19 -8 -21 -16
-8 -8 13 -10 13 -10 -2 0 -11 -5 -15 -14 -12 -8 3 -17 0 -21 -5 -3 -6 -11 -8
-17 -5 -7 4 -8 2 -4 -4 4 -7 2 -12 -4 -12 -6 0 -8 -6 -4 -13 4 -6 4 -9 -1 -5
-4 4 -15 2 -23 -5 -13 -10 -14 -9 -8 3 5 8 -4 2 -18 -15 -16 -19 -24 -23 -19
-11 6 18 5 18 -15 0 -24 -20 -29 -30 -10 -18 7 4 8 3 4 -5 -6 -9 -11 -9 -24 1
-13 11 -14 11 -7 -1 6 -11 4 -13 -8 -8 -9 3 -19 1 -23 -5 -5 -7 -2 -8 7 -4 8
4 6 1 -3 -7 -10 -8 -15 -17 -11 -21 4 -4 0 -4 -9 -1 -9 4 -19 1 -23 -4 -3 -6
-11 -8 -17 -5 -7 5 -8 2 -3 -6 6 -10 4 -12 -10 -6 -15 5 -16 4 -6 -8 10 -12 9
-14 -8 -9 -13 3 -23 0 -27 -10 -3 -9 -12 -13 -21 -10 -12 5 -14 3 -8 -7 6 -10
4 -12 -9 -7 -10 4 -15 3 -11 -3 3 -5 -4 -14 -15 -20 -11 -6 -20 -7 -20 -3 0 4
-9 -3 -20 -15 -12 -12 -25 -22 -31 -22 -6 0 -7 -6 -3 -12 5 -8 2 -8 -10 1 -9
8 -16 10 -14 5 5 -15 -35 -55 -43 -42 -4 6 -10 2 -14 -11 -4 -13 -12 -20 -20
-17 -9 3 -12 0 -8 -10 3 -8 -1 -14 -9 -14 -7 0 -29 -13 -48 -28 l-34 -29 60
-2 c71 -3 155 -18 112 -20 -18 -1 -28 -7 -28 -16 0 -13 459 -15 4075 -15 3616
0 4075 2 4075 15 0 12 -14 15 -62 15 -103 0 -57 11 63 15 63 2 127 8 142 14
16 6 33 9 38 5 5 -3 9 1 9 8 0 8 3 9 8 3 9 -13 54 -16 46 -3 -3 5 -9 7 -12 4
-3 -3 -11 -1 -17 4 -7 6 -24 11 -39 12 -14 1 -26 6 -26 11 0 5 -7 7 -15 3 -8
-3 -15 -2 -15 3 0 8 -4 9 -52 14 -15 2 -35 10 -44 18 -16 12 -17 12 -9 -1 6
-12 5 -13 -6 -2 -7 6 -21 12 -31 12 -10 0 -18 5 -18 11 0 5 -5 7 -10 4 -6 -3
-10 0 -10 7 0 9 -3 9 -10 -2 -6 -10 -10 -11 -10 -2 0 6 -5 12 -11 12 -5 0 -7
-4 -4 -10 10 -16 0 -12 -25 10 -15 13 -31 18 -43 14 -12 -4 -17 -2 -13 4 9 14
-45 40 -78 36 l-27 -3 23 20 c13 11 16 17 8 13 -25 -14 -39 -13 -52 4 -11 15
-11 15 4 4 12 -10 18 -10 24 -1 4 7 3 9 -4 5 -6 -3 -14 -2 -17 4 -5 8 -12 7
-23 -2 -12 -10 -14 -10 -8 0 4 7 2 12 -4 12 -6 0 -9 4 -6 8 2 4 -5 14 -17 22
-21 12 -21 12 -7 -6 14 -18 13 -17 -10 1 -14 11 -27 23 -30 26 -3 3 -15 11
-28 18 -12 7 -20 16 -17 22 4 5 1 9 -4 9 -6 0 -11 -5 -11 -12 0 -6 -6 -4 -13
7 -8 10 -19 15 -26 11 -6 -4 -11 -4 -10 1 4 20 -2 27 -12 13 -9 -12 -10 -11
-6 7 3 12 2 22 -2 21 -25 -3 -51 4 -46 12 3 6 -1 7 -9 4 -11 -4 -16 0 -16 11
0 9 -4 13 -10 10 -5 -3 -10 -1 -10 6 0 8 -5 7 -17 -2 -15 -12 -16 -12 -10 4 4
10 3 16 -2 12 -5 -3 -12 -1 -16 5 -3 5 -15 10 -26 10 -11 0 -18 4 -15 9 3 5
-1 12 -10 15 -9 4 -13 2 -8 -5 4 -8 0 -8 -14 0 -12 6 -24 17 -28 24 -5 7 0 6
12 -3 17 -14 18 -14 6 2 -7 9 -22 15 -33 13 -11 -2 -22 2 -26 10 -3 8 -11 15
-19 15 -8 0 -14 5 -14 11 0 5 -4 8 -9 4 -6 -3 -14 3 -20 12 -10 17 -10 17 -11
-2 -1 -17 -3 -17 -11 5 -8 20 -12 22 -19 10 -8 -12 -10 -10 -11 10 0 14 -3 19
-6 12 -4 -10 -9 -9 -20 5 -8 10 -12 12 -8 6 3 -7 3 -13 0 -13 -11 0 -34 27
-30 34 3 3 -1 2 -7 -4 -7 -5 -17 -10 -23 -10 -5 0 -3 5 5 11 12 8 9 10 -13 6
-22 -4 -30 0 -37 17 -5 11 -9 15 -9 8 -1 -7 -5 -11 -10 -8 -5 4 -12 0 -15 -6
-3 -7 -4 -4 -1 8 4 14 0 21 -9 21 -9 0 -13 -4 -10 -9 11 -17 -9 -7 -28 15 -11
12 -16 16 -12 8 4 -9 2 -12 -7 -9 -8 3 -14 10 -14 16 0 5 -4 14 -9 19 -5 5 -6
3 -2 -4 4 -7 2 -13 -3 -13 -6 0 -11 5 -11 11 0 6 -7 8 -15 5 -9 -3 -18 1 -22
10 -3 9 -12 13 -21 9 -12 -4 -13 -3 -3 9 10 12 9 14 -7 10 -10 -3 -24 2 -31
10 -10 11 -18 13 -32 6 -14 -8 -26 -4 -53 14 -19 13 -32 27 -28 32 4 5 -2 2
-12 -6 -16 -12 -18 -12 -11 -1 6 11 3 13 -13 9 -15 -4 -19 -2 -15 8 3 9 -1 14
-12 14 -10 0 -13 -5 -9 -12 4 -7 3 -8 -5 -4 -6 4 -8 12 -5 18 5 8 1 9 -11 4
-15 -5 -16 -4 -6 8 10 12 8 13 -10 9 -17 -5 -20 -3 -14 8 7 12 6 12 -7 1 -11
-9 -18 -10 -23 -2 -3 6 -11 7 -17 4 -7 -4 -8 -2 -4 5 6 9 11 9 24 -1 12 -10
14 -10 8 -1 -4 7 -16 18 -28 24 -16 9 -19 8 -13 -3 3 -7 0 -5 -8 5 -11 14 -25
17 -56 14 -22 -2 -38 0 -35 4 2 4 0 10 -6 14 -6 4 -7 12 -4 18 4 7 4 9 -1 5
-4 -4 -14 -3 -22 4 -7 6 -16 8 -20 4 -3 -3 -1 -6 5 -6 6 0 17 -10 23 -22 12
-23 12 -23 -9 -5 -11 11 -26 16 -32 12 -6 -3 -10 -3 -9 2 4 20 -2 34 -13 32
-32 -4 -49 2 -42 13 6 10 4 10 -8 0 -11 -9 -18 -10 -23 -2 -3 5 -1 10 6 10 19
0 1 13 -24 17 -12 2 -24 8 -25 13 -2 6 -9 7 -15 3 -9 -5 -9 -3 0 8 10 12 8 15
-8 16 -10 1 -19 -4 -19 -10 0 -7 -4 -6 -10 3 -13 20 -12 39 1 20 9 -13 10 -13
6 0 -2 9 -13 14 -28 12 -19 -2 -21 -1 -9 7 12 9 9 11 -12 11 -19 0 -28 5 -28
16 0 8 -4 12 -10 9 -5 -3 -10 0 -10 7 0 10 -2 10 -9 -1 -6 -9 -10 -9 -12 -2
-2 6 -16 12 -31 13 -15 1 -24 6 -22 10 3 4 -1 8 -10 8 -8 0 -16 5 -18 10 -2 6
-13 12 -26 13 -12 0 -22 8 -22 16 0 13 -2 13 -12 0 -7 -8 -12 -13 -11 -11 3 7
-32 40 -46 44 -8 2 -25 14 -37 28 -17 20 -20 28 -11 40 6 8 8 12 3 8 -4 -4
-14 -1 -21 5 -10 9 -10 15 -2 26 10 11 7 13 -13 8 -14 -4 -19 -4 -12 -1 6 3 9
11 6 16 -5 7 -2 8 6 3 9 -5 11 -4 6 3 -4 7 -1 12 6 12 8 0 6 5 -5 11 -9 6 -14
15 -11 21 4 6 2 8 -4 4 -6 -3 -14 -1 -18 5 -4 7 -3 9 2 6 6 -3 16 -2 24 4 11
6 12 9 2 9 -8 0 -10 5 -6 13 6 9 4 9 -8 -1 -13 -10 -18 -10 -24 -1 -5 8 -3 9
6 4 10 -6 12 -4 7 8 -3 10 -2 17 3 17 6 0 10 5 10 11 0 5 -4 8 -9 4 -5 -3 -13
0 -17 6 -4 8 -3 9 4 5 7 -4 12 -2 12 3 0 6 -6 11 -12 11 -8 0 -9 3 -3 8 13 9
16 42 4 42 -5 0 -8 3 -8 8 1 4 0 9 -1 12 -7 20 -7 41 2 47 7 3 8 1 4 -5 -4 -7
-2 -12 3 -12 12 0 14 13 4 24 -15 14 -12 38 4 32 13 -5 14 -4 4 8 -10 11 -8
17 6 26 17 10 16 11 -2 5 -17 -4 -21 0 -21 19 0 14 4 22 8 20 5 -3 6 -10 3
-15 -3 -5 1 -6 10 -2 13 4 14 8 4 14 -10 6 -10 12 4 27 14 15 14 19 2 19 -8 0
-11 -5 -8 -11 4 -6 -1 -5 -10 3 -18 15 -23 26 -7 16 6 -3 10 1 10 10 0 10 -5
13 -12 9 -9 -5 -8 -2 1 10 11 13 11 20 2 29 -9 9 -6 16 11 30 l23 18 -25 -6
c-14 -3 -20 -3 -14 2 6 4 10 16 8 26 -1 9 2 15 7 11 5 -3 6 -11 3 -17 -4 -7
-3 -8 1 -4 12 10 15 37 5 37 -4 0 -11 7 -14 16 -6 15 -4 15 11 3 16 -13 16
-11 -1 16 l-19 30 23 -20 c13 -11 20 -14 16 -7 -4 7 -3 19 3 26 8 9 7 13 -4
13 -8 0 -11 -5 -8 -10 3 -6 1 -7 -6 -3 -6 4 -8 12 -5 18 4 6 1 14 -6 18 -8 5
-3 10 15 14 26 7 26 8 9 21 -10 7 -23 11 -28 8 -5 -4 -6 -1 -2 6 4 6 11 9 16
6 10 -6 19 16 13 33 -3 6 -10 10 -16 6 -7 -3 -3 2 7 10 11 9 14 16 8 16 -7 0
-12 5 -12 11 0 5 4 8 8 5 5 -3 9 2 9 10 0 8 -5 13 -12 11 -6 -3 -11 4 -11 14
0 13 4 15 12 8 9 -7 11 -5 9 8 -2 10 -4 23 -4 28 -1 6 -6 3 -11 -5 -5 -8 -10
-10 -10 -4 0 6 7 17 15 24 19 16 19 25 -2 46 -17 17 -17 17 5 12 28 -8 28 -1
1 21 -19 15 -20 18 -5 30 15 13 15 16 -1 35 -17 20 -17 20 1 6 18 -14 19 -13
13 8 -4 17 -2 22 7 19 11 -4 11 0 2 18 -6 13 -15 21 -21 17 -5 -3 -1 4 9 16
12 14 14 22 7 22 -7 0 -9 5 -6 10 5 8 12 7 22 -2 15 -12 15 -11 3 9 -12 19
-12 25 5 44 11 12 15 19 8 15 -13 -7 -39 31 -29 42 3 3 6 1 6 -5 0 -6 6 -13
13 -16 10 -4 12 6 10 40 -2 26 2 51 9 60 9 11 9 16 0 22 -7 4 -10 15 -6 24 3
9 11 14 16 11 6 -4 5 4 -2 16 -11 20 -10 22 5 16 14 -5 15 -4 7 7 -9 10 -8 17
1 27 9 10 9 11 0 6 -7 -4 -13 -3 -13 3 0 5 6 12 13 15 9 5 9 7 0 12 -10 4 -9
9 2 21 18 18 20 37 3 27 -7 -4 -5 1 4 12 14 16 15 23 5 34 -10 10 -9 11 2 5
11 -6 13 -4 8 8 -3 9 -2 19 3 22 6 4 6 13 0 26 -8 14 -8 19 1 17 6 -2 13 5 14
14 2 10 -2 18 -8 19 -7 0 -4 4 7 8 18 7 18 8 0 26 -16 16 -16 18 -2 13 20 -8
34 22 16 34 -9 5 -9 8 -1 8 6 0 10 13 9 29 -2 22 2 28 14 23 13 -5 13 -4 0 13
-9 12 -10 16 -2 11 9 -6 11 -1 8 18 -3 16 -1 24 5 20 6 -3 8 9 6 30 -4 30 -2
34 10 24 11 -9 13 -8 11 3 -2 8 -7 17 -13 21 -6 5 -5 8 3 8 6 0 12 5 12 11 0
5 -6 7 -12 4 -7 -4 -6 -1 2 7 19 16 25 62 7 53 -6 -4 -4 0 7 9 10 8 15 20 10
27 -4 8 -3 10 4 5 7 -4 12 -1 12 7 0 9 9 13 25 12 17 -2 25 2 25 11 0 9 4 13
9 10 12 -8 42 4 36 13 -2 4 9 7 25 6 24 -1 30 2 30 19 0 17 2 18 10 6 9 -13
10 -13 10 0 0 13 1 13 10 0 8 -12 10 -12 10 5 0 17 2 17 10 5 8 -13 10 -12 10
3 0 9 7 17 16 17 9 0 23 8 30 18 13 16 14 16 8 -3 -4 -17 -3 -16 8 3 8 12 17
19 21 16 4 -4 7 -2 7 5 0 7 4 10 9 7 5 -3 12 1 15 10 4 10 2 13 -6 8 -7 -4 -8
-3 -4 4 4 7 13 12 19 12 19 0 48 38 34 44 -7 3 -6 5 3 5 8 1 21 10 28 22 8 12
9 18 3 14 -6 -3 -11 -1 -11 4 0 6 7 11 15 11 9 0 12 6 8 17 -5 11 -3 14 6 8
10 -5 11 -2 6 14 -4 14 -2 21 6 21 7 0 9 3 6 7 -4 3 2 13 14 21 14 10 17 18
11 24 -7 7 -3 19 13 36 14 14 22 28 19 31 -3 3 -9 -1 -14 -9 -7 -11 -10 -11
-10 -2 0 7 7 15 15 18 8 3 17 21 21 40 3 19 10 32 14 29 9 -5 26 33 22 48 -1
5 2 6 7 3 5 -3 14 1 21 9 7 8 9 15 5 15 -4 0 -1 8 6 17 8 10 9 14 2 10 -6 -4
-15 -3 -18 3 -4 6 -3 10 2 9 4 -1 15 -1 23 1 11 1 9 4 -5 10 -18 8 -19 9 -1 9
11 1 16 6 13 15 -6 16 16 40 26 30 4 -4 4 3 2 16 -3 17 -1 20 12 16 13 -5 14
-4 4 8 -9 11 -8 15 5 20 14 5 14 9 3 23 -8 9 -9 14 -3 10 16 -9 24 28 10 44
-6 8 0 5 13 -6 l24 -20 -12 22 c-9 17 -8 25 6 39 10 9 17 26 17 38 0 12 5 25
10 29 6 5 0 6 -14 3 -14 -3 -19 -3 -12 0 6 3 10 10 7 14 -3 5 5 16 17 26 15
11 17 14 6 11 -23 -8 -23 -1 2 25 15 16 17 25 8 35 -6 7 -14 11 -17 7 -3 -4 0
-9 7 -11 12 -5 7 -23 -6 -23 -19 0 -9 42 11 50 12 5 17 9 11 9 -7 1 -14 7 -17
15 -4 11 0 14 16 11 20 -4 21 -3 5 9 -22 16 -23 30 -3 22 13 -4 13 -2 5 14 -8
14 -7 22 4 32 12 11 11 15 -8 25 -19 12 -18 12 14 8 19 -3 30 -2 23 3 -15 9
-13 51 2 49 5 -1 9 6 7 17 -2 10 1 15 6 12 6 -3 9 7 8 24 -2 25 0 27 13 17 11
-9 13 -9 8 0 -4 6 -3 15 3 18 8 5 7 12 -2 23 -8 9 -8 13 -2 9 16 -10 28 25 12
35 -10 6 -9 8 4 8 11 0 15 5 12 15 -4 8 -1 15 5 15 6 0 11 5 11 11 0 5 -4 8
-8 5 -5 -3 -9 1 -9 9 0 8 4 12 9 9 8 -5 11 5 11 39 0 12 5 16 16 13 13 -5 13
-4 -1 7 -10 8 -15 17 -11 20 3 4 13 1 22 -6 14 -10 14 -10 4 4 -7 9 -9 20 -5
24 4 5 2 5 -5 1 -6 -3 -15 -1 -19 5 -4 7 -3 9 3 6 6 -4 17 1 24 10 12 15 12
16 -3 10 -10 -3 -18 -2 -18 2 0 5 6 11 13 14 15 6 16 45 1 55 -5 4 -10 19 -11
35 -1 19 3 27 15 27 14 1 14 2 -3 12 -19 11 -19 11 0 19 19 7 19 8 1 8 -15 1
-16 4 -7 15 10 12 8 17 -7 25 -11 6 -23 7 -27 3 -4 -4 -2 4 5 17 11 21 10 23
-3 18 -11 -4 -14 -2 -10 8 4 12 -2 14 -26 11 -24 -3 -29 -1 -21 9 8 9 6 14 -6
19 -22 9 -26 8 -18 -6 5 -7 3 -8 -6 -3 -10 6 -9 11 5 22 11 7 14 13 8 13 -15
0 -44 -36 -36 -45 5 -4 2 -5 -5 -1 -10 6 -10 11 -2 21 9 11 7 14 -9 12 -11 0
-17 -5 -14 -11 4 -5 -1 -7 -10 -3 -10 3 -17 2 -17 -3 0 -6 5 -10 12 -10 6 0 8
-3 5 -7 -4 -3 -16 2 -28 13 -13 12 -19 14 -17 5 2 -7 -3 -16 -11 -19 -9 -3
-11 0 -6 8 5 9 4 11 -4 6 -6 -4 -8 -12 -5 -18 5 -7 1 -9 -9 -5 -11 4 -22 -4
-36 -26 -11 -18 -21 -26 -21 -19 0 6 -5 12 -11 12 -5 0 -7 -5 -3 -11 4 -8 -1
-9 -17 -4 -23 7 -24 7 -4 -9 18 -14 19 -15 2 -16 -12 0 -16 -4 -11 -12 4 -7 4
-10 -1 -6 -4 4 -15 -3 -25 -14 -23 -29 -67 -31 -81 -5 -8 14 -8 18 0 13 6 -4
11 -3 11 3 0 5 -5 11 -12 13 -7 3 -12 22 -11 46 1 27 -3 40 -10 35 -6 -3 -7
-1 -3 5 4 6 12 9 20 6 7 -3 13 2 13 10 0 9 -8 13 -20 10 -19 -3 -19 -2 -2 16
9 10 14 23 10 29 -3 6 0 8 8 5 8 -3 18 0 23 7 5 8 3 10 -6 4 -10 -6 -12 -4 -7
7 3 9 1 20 -5 26 -6 6 -6 12 3 17 7 5 10 4 6 -2 -4 -6 -1 -13 6 -16 10 -4 13
2 9 19 -2 13 2 32 9 41 12 15 12 16 -3 10 -10 -3 -20 -2 -23 4 -4 5 -1 8 7 7
7 -2 12 3 11 10 -2 6 4 12 12 12 8 0 15 4 15 10 0 5 -8 7 -17 4 -17 -5 -17 -5
-1 5 9 6 15 20 13 30 -2 14 2 17 21 15 13 -1 22 2 18 7 -3 5 -9 7 -13 4 -5 -2
-8 6 -8 19 0 16 7 26 20 30 21 5 21 6 -3 32 l-25 27 30 -19 c26 -16 28 -17 16
-1 -7 9 -10 17 -5 17 5 0 2 5 -6 10 -13 8 -13 10 2 10 9 0 20 5 24 12 4 6 3 9
-2 5 -5 -3 -15 6 -22 21 -9 19 -9 23 0 14 16 -16 25 -15 25 3 0 8 -3 12 -7 10
-5 -3 -5 53 0 65 1 3 2 9 1 14 -1 5 5 6 14 2 9 -3 13 -2 10 3 -3 6 3 15 12 21
17 11 17 11 1 6 -10 -3 -18 -2 -18 1 0 4 8 15 18 26 9 11 12 17 6 14 -22 -13
-22 32 -1 60 12 16 14 22 5 15 -13 -10 -17 -10 -22 3 -3 9 -2 13 3 10 5 -3 12
-1 16 5 3 5 1 10 -5 10 -6 0 -4 8 6 17 15 16 15 17 -2 23 -17 6 -16 7 2 12 12
3 21 12 21 21 0 9 -4 14 -9 11 -4 -3 -8 1 -8 8 0 10 -3 9 -11 -2 -9 -13 -10
-13 -6 0 2 8 13 14 23 13 16 -1 15 2 -6 19 -14 13 -18 19 -8 15 12 -4 15 -2
11 8 -3 8 -10 12 -17 9 -6 -3 -1 3 11 14 21 19 24 46 7 74 -5 8 -1 9 12 5 18
-7 18 -6 2 6 -10 8 -15 17 -11 21 14 14 9 46 -6 46 -14 0 -14 2 -1 10 13 9 8
14 -12 11 -8 -1 -5 20 6 38 6 9 5 12 0 8 -6 -3 -16 3 -23 15 -11 18 -10 19 11
13 15 -4 18 -3 10 3 -7 5 -11 15 -9 23 2 8 2 11 0 7 -11 -19 -23 -6 -13 12 11
20 3 26 -24 21 -5 -1 -4 4 2 12 7 8 8 17 4 21 -4 4 -2 6 3 4 9 -3 15 4 15 17
0 3 -10 1 -22 -5 -23 -11 -23 -11 1 9 21 19 21 21 5 21 -15 0 -16 2 -5 9 8 5
9 10 2 12 -6 2 -12 14 -14 26 -2 12 -6 26 -10 29 -4 4 -7 12 -7 18 0 5 6 1 14
-10 8 -10 18 -16 22 -11 4 4 2 7 -4 7 -16 0 -15 27 1 34 6 3 3 4 -7 3 -10 -1
-21 4 -24 12 -2 8 0 11 5 8 13 -8 10 23 -5 49 -6 12 -8 25 -4 30 4 5 -1 3 -10
-4 -14 -11 -16 -10 -11 7 3 12 10 18 17 15 6 -3 2 3 -9 13 -13 12 -20 30 -19
53 1 45 -5 62 -20 53 -6 -4 -5 1 3 10 16 20 2 23 -19 5 -12 -11 -12 -10 -4 2
19 26 24 49 11 44 -8 -3 -12 8 -12 33 1 21 -6 47 -15 57 -8 11 -9 16 -2 12 7
-4 12 -1 12 9 0 9 -4 13 -10 10 -5 -3 -10 -1 -10 5 0 6 -4 8 -10 5 -16 -10
-12 5 7 23 16 16 16 16 9 -3 -6 -16 -5 -18 5 -7 11 10 10 16 -5 30 -11 9 -16
11 -12 5 4 -7 2 -13 -5 -13 -6 0 -9 8 -6 19 4 15 0 19 -15 16 -14 -3 -17 -1
-10 8 5 7 8 20 7 30 -2 9 1 15 5 12 5 -3 8 4 7 15 -1 11 -8 20 -17 20 -13 0
-13 1 0 10 13 9 12 13 -8 28 -23 17 -23 19 -5 33 17 13 17 13 3 -6 -14 -18
-14 -19 2 -7 16 13 17 39 2 65 -6 9 -5 9 7 0 13 -11 15 -9 14 7 -1 11 -4 23
-8 26 -4 4 -1 14 6 22 8 11 8 14 0 9 -6 -4 -13 -4 -16 0 -2 5 -2 3 -1 -4 2 -7
-1 -15 -6 -18 -6 -4 -10 -1 -10 4 0 6 -7 11 -15 11 -9 0 -12 6 -9 15 4 8 1 22
-6 30 -10 12 -10 18 -1 29 10 12 8 14 -11 10 -13 -2 -17 -2 -10 2 19 9 14 24
-5 18 -11 -4 -14 -2 -8 3 14 12 17 53 3 53 -6 0 -3 10 8 22 10 12 14 19 8 15
-6 -3 -19 -1 -29 6 -15 11 -15 16 -4 28 16 17 24 43 10 35 -5 -3 -12 1 -15 10
-3 8 -2 12 3 9 5 -3 13 0 17 6 5 8 3 9 -6 4 -10 -6 -12 -4 -7 8 3 9 1 19 -5
23 -7 4 -6 9 3 15 11 7 11 9 1 9 -7 0 -15 -7 -18 -15 -4 -8 -11 -15 -16 -15
-6 0 -5 7 2 15 10 13 11 18 1 28 -10 9 -12 9 -9 -2 2 -8 -5 -17 -14 -19 -10
-2 -18 1 -18 7 0 6 8 8 18 4 15 -6 14 -3 -3 17 -11 13 -14 20 -7 16 6 -4 12
-2 12 3 0 6 -8 11 -17 12 -11 0 -13 3 -5 6 6 2 10 9 7 13 -3 5 -13 6 -22 3
-15 -6 -16 -5 -3 9 11 11 17 12 22 4 5 -8 11 -7 20 3 11 11 11 13 -1 6 -11 -6
-13 -4 -8 8 4 11 2 14 -7 11 -18 -7 -30 12 -15 22 8 5 9 3 4 -6 -5 -8 -4 -11
3 -7 12 8 4 47 -10 47 -5 0 -7 -4 -3 -9 3 -5 1 -12 -4 -16 -6 -3 -8 3 -6 15 2
11 0 22 -5 25 -5 3 -7 19 -5 35 2 17 -1 30 -7 30 -5 0 -8 7 -5 15 4 8 2 17 -3
20 -5 3 -7 17 -4 31 4 22 2 25 -18 20 -13 -3 -17 -3 -10 0 6 3 12 12 12 20 0
9 -5 12 -12 8 -6 -4 -8 -3 -4 4 3 6 -2 15 -11 21 -15 8 -16 12 -5 23 7 7 12 9
10 3 -2 -5 1 -11 6 -12 5 -1 12 -7 16 -13 5 -8 9 -7 13 4 4 9 1 15 -6 13 -7
-1 -11 3 -10 10 2 7 -6 10 -17 8 -23 -4 -26 5 -7 25 10 12 9 12 -5 1 -14 -10
-18 -9 -27 6 -9 16 -12 16 -21 3 -8 -12 -10 -10 -8 10 2 20 -1 25 -18 24 -15
0 -21 5 -20 20 1 12 8 20 15 18 7 -1 10 2 6 8 -4 7 -13 6 -28 -1 -12 -7 -19
-8 -15 -4 8 8 -28 45 -44 45 -4 0 -8 8 -8 18 0 14 -2 15 -10 2 -8 -13 -10 -13
-10 2 0 9 6 19 13 22 6 3 3 4 -8 3 -12 -1 -19 3 -17 11 1 8 -2 11 -7 8 -5 -4
-12 -2 -16 4 -4 6 -11 8 -16 5 -5 -4 -9 -1 -9 5 0 6 -4 9 -9 6 -5 -3 -8 2 -7
12 0 9 -5 16 -11 14 -7 -1 -13 3 -13 9 0 5 -4 8 -8 5 -4 -2 -9 4 -9 16 -2 26
-30 68 -45 68 -7 0 -2 -9 10 -20 12 -12 22 -26 21 -33 0 -9 -2 -9 -6 1 -2 6
-10 9 -15 6 -6 -4 -8 -3 -5 3 3 5 -3 17 -15 27 -17 15 -18 20 -7 27 12 7 12 9
-1 10 -8 1 -21 1 -27 0 -7 -1 -13 3 -13 9 0 5 6 10 13 10 6 0 4 5 -6 11 -9 6
-15 14 -12 20 10 15 -2 10 -16 -8 -12 -14 -12 -16 0 -8 10 6 12 4 6 -5 -6 -9
-4 -11 5 -5 9 6 11 4 5 -5 -6 -10 -12 -8 -27 9 -10 13 -16 27 -13 31 3 5 -6 7
-20 5 -22 -2 -25 1 -20 19 5 18 4 18 -8 -3 -9 -15 -17 -20 -21 -12 -4 6 -2 11
3 11 6 0 11 5 11 11 0 5 -5 7 -12 3 -8 -5 -9 -2 -5 9 3 10 2 17 -3 17 -6 0
-10 -4 -10 -10 0 -5 -4 -10 -9 -10 -6 0 -8 9 -6 20 2 11 0 20 -6 20 -5 0 -9
-10 -9 -22 0 -18 -2 -20 -9 -8 -6 8 -8 17 -5 21 2 4 -1 11 -7 15 -8 4 -9 3 -5
-4 14 -24 -6 -11 -38 23 -31 32 -55 47 -41 26 3 -5 1 -12 -4 -15 -17 -11 -5
27 13 39 16 12 16 14 -2 19 -11 4 -26 4 -35 1 -8 -4 -18 -1 -23 6 -4 8 -3 10
4 5 16 -10 32 2 26 19 -7 18 -32 27 -40 13 -4 -6 -3 -8 3 -5 6 4 17 -1 24 -11
13 -16 13 -16 -5 -2 -11 8 -21 14 -23 13 -10 -8 -12 -1 -4 16 8 14 6 23 -9 36
-12 10 -20 13 -20 7 0 -7 -5 -12 -10 -12 -6 0 -10 7 -8 16 2 10 -4 19 -12 21
-13 4 -13 3 0 -6 13 -9 13 -11 -1 -11 -20 0 -33 27 -16 33 7 2 -1 4 -17 4 -15
0 -31 6 -35 12 -4 6 -17 13 -29 16 -19 3 -22 0 -18 -21 3 -13 1 -22 -4 -19 -4
3 -7 17 -5 31 2 21 -1 25 -16 21 -11 -3 -21 -1 -24 3 -3 5 -14 7 -25 5 -11 -2
-20 0 -20 6 0 5 5 9 10 9 6 0 10 8 9 18 0 9 -3 12 -5 5 -3 -7 -12 -9 -21 -6
-9 4 -14 2 -10 -3 3 -5 -3 -10 -13 -10 -10 0 -18 5 -17 11 1 5 -3 9 -10 8 -9
-2 -10 4 -3 22 11 28 -2 42 -20 20 -13 -15 -35 -10 -25 6 4 5 -1 9 -10 9 -9 0
-14 -4 -10 -9 3 -5 2 -12 -3 -15 -4 -2 -9 4 -9 15 -1 10 3 19 9 19 6 0 9 2 6
5 -9 10 -38 -7 -32 -19 3 -6 -2 -2 -10 8 -9 11 -16 24 -16 29 0 5 -8 6 -17 2
-10 -4 -22 -8 -28 -9 -5 -1 -16 -5 -23 -10 -11 -7 -12 -4 -3 12 14 26 14 32 0
32 -5 0 -7 -4 -4 -10 3 -5 -1 -10 -10 -10 -9 0 -13 4 -10 10 3 5 0 7 -9 4 -8
-3 -14 -11 -12 -17 1 -7 1 -9 -1 -4 -3 4 -11 7 -19 7 -8 0 -14 4 -14 9 0 5 7
8 16 7 9 0 19 6 21 14 4 13 3 13 -6 0 -10 -13 -12 -13 -21 0 -6 10 -10 11 -10
3 0 -7 -5 -13 -11 -13 -5 0 -8 4 -4 9 3 5 0 13 -6 17 -7 4 -9 3 -5 -4 3 -6 2
-13 -4 -17 -5 -3 -10 -1 -10 4 0 6 -5 11 -11 11 -5 0 -8 -4 -4 -9 3 -5 0 -13
-6 -17 -7 -4 -9 -3 -6 3 4 6 -2 18 -12 27 -15 13 -18 14 -18 1 0 -8 5 -11 10
-8 6 3 7 1 3 -5 -8 -13 -41 -11 -53 3 -5 4 -3 5 4 1 6 -3 14 -2 17 3 4 5 -2 8
-11 6 -10 -1 -24 3 -32 9 -11 8 -13 8 -7 -1 4 -8 1 -13 -9 -13 -9 0 -13 -5 -9
-11 4 -7 1 -10 -7 -7 -8 3 -13 10 -12 16 1 5 -6 8 -16 5 -10 -3 -22 0 -25 6
-9 14 -26 14 -26 0 0 -5 4 -8 9 -5 5 3 12 -1 15 -9 4 -13 2 -13 -14 -5 -10 5
-26 10 -35 10 -9 0 -23 7 -31 15 -13 13 -18 13 -40 -1 -15 -10 -24 -12 -24 -5
0 6 5 11 12 11 6 0 8 3 5 6 -4 4 -12 2 -20 -4 -16 -14 -42 1 -33 19 4 8 1 6
-7 -3 -17 -22 -32 -11 -14 11 10 14 10 14 -4 4 -9 -7 -19 -10 -23 -6 -4 4 -4
0 -1 -8 4 -10 0 -16 -9 -16 -8 0 -13 4 -10 9 3 4 -2 8 -11 8 -9 0 -13 5 -9 11
3 6 -6 3 -22 -7 -20 -13 -25 -14 -17 -4 9 12 7 15 -14 17 -20 1 -23 -1 -12 -9
11 -8 11 -9 -3 -4 -10 3 -18 -1 -21 -12 -4 -15 -5 -15 -6 -1 -1 18 -49 54 -59
45 -3 -3 -14 2 -25 11 -20 18 -20 18 -1 -12 14 -23 15 -27 3 -18 -9 7 -20 9
-24 5 -5 -4 -5 -1 -1 6 4 6 4 12 -1 13 -4 0 -16 2 -26 4 -9 2 -15 -1 -11 -6 3
-5 10 -7 15 -4 5 4 9 1 9 -4 0 -16 -16 -13 -30 4 -7 8 -16 12 -21 9 -5 -3 -9
0 -9 7 0 8 -5 7 -17 -2 -15 -12 -16 -12 -10 4 4 10 3 16 -2 12 -5 -3 -11 -2
-14 2 -2 5 -2 2 -1 -4 2 -7 -1 -13 -5 -13 -5 0 -12 6 -14 13 -4 10 -6 10 -6 0
-1 -7 -6 -13 -12 -13 -5 0 -7 4 -4 10 3 6 -1 7 -10 4 -8 -4 -22 -1 -29 5 -10
8 -16 9 -21 1 -6 -10 -5 -11 14 -14 21 -3 20 -13 -1 -12 -13 0 -29 10 -36 21
-13 20 -13 20 -7 -1z m-25 -30 c0 -8 -19 -13 -24 -6 -3 5 1 9 9 9 8 0 15 -2
15 -3z m350 -19 c7 -8 9 -15 6 -15 -4 0 -14 7 -22 15 -9 8 -11 15 -6 15 5 0
15 -7 22 -15z m126 -27 c4 -7 4 -10 -1 -6 -4 4 -15 2 -24 -5 -14 -11 -14 -10
-2 6 16 20 18 21 27 5z m179 -17 c3 -5 1 -12 -5 -16 -5 -3 -10 1 -10 9 0 18 6
21 15 7z m188 -25 c4 -10 1 -13 -8 -9 -8 3 -12 9 -9 14 7 12 11 11 17 -5z
m293 -62 c2 -12 -1 -13 -12 -3 -7 6 -11 16 -8 21 7 11 17 3 20 -18z m117 -29
c-3 -9 -8 -14 -10 -11 -3 3 -2 9 2 15 9 16 15 13 8 -4z m-2189 -63 c3 -5 -1
-9 -9 -9 -8 0 -15 4 -15 9 0 4 4 8 9 8 6 0 12 -4 15 -8z m2381 -41 c3 -5 2
-12 -3 -15 -5 -3 -9 1 -9 9 0 17 3 19 12 6z m49 -36 c3 -8 1 -15 -4 -15 -6 0
-10 7 -10 15 0 8 2 15 4 15 2 0 6 -7 10 -15z m84 -50 c-4 -14 -27 -15 -35 -3
-3 7 -1 8 5 4 7 -4 12 -2 12 4 0 7 5 10 11 8 6 -2 9 -8 7 -13z m82 -79 c0 -2
-7 -7 -16 -10 -8 -3 -12 -2 -9 4 6 10 25 14 25 6z m-3474 -178 c4 -7 3 -8 -4
-4 -7 4 -12 2 -12 -3 0 -6 -5 -11 -11 -11 -8 0 -8 5 1 15 15 18 17 18 26 3z
m-115 -75 c-12 -20 -14 -14 -5 12 4 9 9 14 11 11 3 -2 0 -13 -6 -23z m4054
-163 c3 -5 1 -10 -4 -10 -6 0 -11 5 -11 10 0 6 2 10 4 10 3 0 8 -4 11 -10z
m-4241 -218 c3 -5 -1 -9 -9 -9 -8 0 -12 4 -9 9 3 4 7 8 9 8 2 0 6 -4 9 -8z
m-104 -58 c0 -8 -4 -12 -10 -9 -5 3 -10 1 -10 -6 0 -9 -3 -9 -14 0 -11 10 -15
9 -19 -4 -4 -12 -5 -11 -3 2 1 11 9 18 21 18 11 0 19 6 17 13 -1 8 2 11 8 7 5
-3 10 -13 10 -21z m-280 -344 c0 -5 -2 -10 -4 -10 -3 0 -8 5 -11 10 -3 6 -1
10 4 10 6 0 11 -4 11 -10z m-18 -37 c-6 -2 -10 -9 -7 -13 3 -5 1 -11 -4 -14
-7 -5 -8 11 -2 32 1 1 7 2 14 1 9 0 9 -2 -1 -6z m5013 -3 c-3 -5 -12 -10 -18
-10 -7 0 -6 4 3 10 19 12 23 12 15 0z m5 -61 c0 -5 -7 -9 -15 -9 -9 0 -12 6
-8 17 5 12 3 14 -7 8 -9 -5 -11 -4 -6 4 6 9 11 9 22 0 8 -6 14 -15 14 -20z
m-5127 -145 c-7 -3 -9 -13 -6 -22 4 -14 3 -14 -5 -2 -12 16 -7 30 11 29 9 0 9
-2 0 -5z m-29 -72 c3 -5 -1 -9 -9 -9 -8 0 -12 4 -9 9 3 4 7 8 9 8 2 0 6 -4 9
-8z m-60 -244 c-3 -4 -9 -8 -15 -8 -5 0 -9 4 -9 8 0 5 7 9 15 9 8 0 12 -4 9
-9z m16 -404 c0 -2 -7 -4 -15 -4 -8 0 -15 4 -15 10 0 5 7 7 15 4 8 -4 15 -8
15 -10z m5413 -29 c-3 -9 -8 -14 -10 -11 -3 3 -2 9 2 15 9 16 15 13 8 -4z m26
-59 c9 -10 7 -17 -6 -27 -16 -13 -17 -12 -5 3 11 14 10 18 -5 27 -10 6 -13 11
-7 11 6 0 17 -6 23 -14z m-5482 -103 c0 -9 -4 -10 -14 -2 -7 6 -13 12 -13 14
0 1 6 2 13 2 8 0 14 -6 14 -14z m5569 -430 c-3 -20 -22 -28 -31 -14 -3 6 0 8
9 5 16 -6 16 11 1 36 -7 13 -6 13 7 2 9 -7 15 -20 14 -29z m-5546 -107 c0 -2
-6 -9 -14 -15 -11 -9 -16 -9 -22 0 -4 7 -3 9 4 5 6 -3 13 -2 17 4 6 10 15 14
15 6z m5547 -32 c-3 -3 -12 -4 -19 -1 -8 3 -5 6 6 6 11 1 17 -2 13 -5z m-32
-174 c3 -5 1 -10 -4 -10 -6 0 -11 5 -11 10 0 6 2 10 4 10 3 0 8 -4 11 -10z
m-17 -45 c-3 -3 -9 2 -12 12 -6 14 -5 15 5 6 7 -7 10 -15 7 -18z m-33 -233
c-3 -3 -11 0 -18 7 -9 10 -8 11 6 5 10 -3 15 -9 12 -12z m-5345 -196 c0 -2 -7
-7 -16 -10 -8 -3 -12 -2 -9 4 6 10 25 14 25 6z m-213 -158 c-3 -8 -6 -5 -6 6
-1 11 2 17 5 13 3 -3 4 -12 1 -19z m-104 -32 c4 -11 1 -13 -10 -9 -10 4 -14 2
-10 -4 3 -5 0 -10 -8 -10 -13 0 -12 4 2 19 19 22 19 22 26 4z m327 -36 c-10
-6 -10 -9 1 -13 8 -2 6 -3 -4 -1 -14 2 -17 -2 -13 -14 5 -13 2 -12 -10 3 -11
14 -18 16 -21 8 -3 -7 -9 -13 -15 -13 -6 0 -3 8 6 19 9 10 28 19 42 19 17 0
22 -3 14 -8z m5716 -160 c0 -12 -4 -16 -9 -11 -5 5 -6 14 -3 20 10 15 12 14
12 -9z m-6061 -138 c-3 -3 -11 0 -18 7 -9 10 -8 11 6 5 10 -3 15 -9 12 -12z
m8 -98 c-4 -12 -8 -13 -14 -3 -9 15 -2 32 11 24 5 -3 6 -13 3 -21z m5862 -552
c-3 -3 -11 0 -18 7 -9 10 -8 11 6 5 10 -3 15 -9 12 -12z m-5518 -608 c-3 -3
-12 -4 -19 -1 -8 3 -5 6 6 6 11 1 17 -2 13 -5z m5203 -44 c0 -5 -2 -10 -4 -10
-3 0 -8 5 -11 10 -3 6 -1 10 4 10 6 0 11 -4 11 -10z m-5180 -14 c0 -2 -7 -7
-16 -10 -8 -3 -12 -2 -9 4 6 10 25 14 25 6z m4610 -1151 c0 -2 -6 -8 -13 -14
-10 -8 -14 -7 -14 2 0 8 6 14 14 14 7 0 13 -1 13 -2z m-4054 -474 c-4 -5 -1
-12 4 -14 6 -3 5 -4 -2 -3 -15 3 -23 26 -8 26 6 0 9 -4 6 -9z m9 -161 c3 -6
-1 -7 -9 -4 -18 7 -21 14 -7 14 6 0 13 -4 16 -10z m-15 -320 c0 -5 -2 -10 -4
-10 -3 0 -8 5 -11 10 -3 6 -1 10 4 10 6 0 11 -4 11 -10z m-7 -154 c9 5 9 4 0
-6 -13 -15 -37 -4 -26 13 5 8 8 8 11 -1 2 -7 9 -9 15 -6z m2 -94 c-3 -3 -11 0
-18 7 -9 10 -8 11 6 5 10 -3 15 -9 12 -12z m4030 -20 c-3 -3 -11 0 -18 7 -9
10 -8 11 6 5 10 -3 15 -9 12 -12z m-4025 -17 c-7 -8 -17 -15 -23 -15 -6 0 -2
7 9 15 25 19 30 19 14 0z m-167 -290 c-3 -9 -8 -14 -10 -11 -3 3 -2 9 2 15 9
16 15 13 8 -4z m4757 -115 c0 -5 -5 -10 -11 -10 -5 0 -7 5 -4 10 3 6 8 10 11
10 2 0 4 -4 4 -10z m475 -200 c3 -5 1 -10 -4 -10 -6 0 -11 5 -11 10 0 6 2 10
4 10 3 0 8 -4 11 -10z m-6171 -244 c-10 -8 -21 -12 -24 -10 -5 6 21 24 34 24
6 0 1 -6 -10 -14z"/>
<path d="M5630 9459 c0 -5 5 -7 10 -4 6 3 10 8 10 11 0 2 -4 4 -10 4 -5 0 -10
-5 -10 -11z"/>
<path d="M5716 9453 c-6 -14 -5 -15 5 -6 7 7 10 15 7 18 -3 3 -9 -2 -12 -12z"/>
<path d="M4745 9449 c-4 -6 -4 -13 -1 -16 3 -4 6 -1 6 6 0 7 5 9 12 5 7 -4 8
-3 4 4 -9 15 -13 15 -21 1z"/>
<path d="M6046 9393 c-6 -14 -5 -15 5 -6 7 7 10 15 7 18 -3 3 -9 -2 -12 -12z"/>
<path d="M6113 9385 c0 -8 4 -12 9 -9 5 3 6 10 3 15 -9 13 -12 11 -12 -6z"/>
<path d="M6225 9310 c-8 -13 15 -24 27 -12 6 6 4 11 -6 15 -8 3 -18 2 -21 -3z"/>
<path d="M6296 9274 c-4 -10 -4 -15 0 -11 4 4 13 2 20 -4 8 -6 14 -6 18 0 4 5
2 12 -4 16 -5 3 -10 3 -10 -2 0 -4 -4 -2 -9 5 -6 11 -10 10 -15 -4z"/>
<path d="M3863 9253 c0 -9 4 -10 14 -2 7 6 13 12 13 14 0 1 -6 2 -13 2 -8 0
-14 -6 -14 -14z"/>
<path d="M6360 9260 c8 -5 20 -10 25 -10 6 0 3 5 -5 10 -8 5 -19 10 -25 10 -5
0 -3 -5 5 -10z"/>
<path d="M3599 9203 c-13 -16 -12 -17 4 -4 9 7 17 15 17 17 0 8 -8 3 -21 -13z"/>
<path d="M6650 9025 c0 -5 5 -17 10 -25 5 -8 10 -10 10 -5 0 6 -5 17 -10 25
-5 8 -10 11 -10 5z"/>
<path d="M3146 8911 c-4 -5 -2 -12 3 -15 5 -4 12 -2 15 3 4 5 2 12 -3 15 -5 4
-12 2 -15 -3z"/>
<path d="M7037 8699 c7 -7 15 -10 18 -7 3 3 -2 9 -12 12 -14 6 -15 5 -6 -5z"/>
<path d="M2835 8590 c4 -6 11 -8 16 -5 14 9 11 15 -7 15 -8 0 -12 -5 -9 -10z"/>
<path d="M2810 8505 c0 -8 -6 -15 -12 -15 -9 0 -8 -4 2 -10 23 -15 28 -12 26
15 -1 26 -16 36 -16 10z"/>
<path d="M2771 8463 c5 -27 -1 -35 -16 -23 -8 7 -15 10 -15 7 0 -2 6 -10 14
-16 12 -10 17 -8 25 8 8 13 8 22 1 26 -6 4 -10 3 -9 -2z"/>
<path d="M7327 8379 c7 -7 15 -10 18 -7 3 3 -2 9 -12 12 -14 6 -15 5 -6 -5z"/>
<path d="M7346 8342 c-3 -5 1 -9 9 -9 8 0 12 4 9 9 -3 4 -7 8 -9 8 -2 0 -6 -4
-9 -8z"/>
<path d="M7337 8309 c7 -7 15 -10 18 -7 3 3 -2 9 -12 12 -14 6 -15 5 -6 -5z"/>
<path d="M7348 8278 c5 -7 8 -25 7 -40 -2 -17 2 -29 12 -32 12 -5 13 -3 6 6
-5 7 -8 28 -8 46 1 22 -3 32 -13 32 -10 0 -12 -4 -4 -12z"/>
<path d="M2425 8060 c-3 -5 -1 -10 4 -10 6 0 11 5 11 10 0 6 -2 10 -4 10 -3 0
-8 -4 -11 -10z"/>
<path d="M7407 8056 c-4 -10 -1 -13 8 -9 8 3 12 9 9 14 -7 12 -11 11 -17 -5z"/>
<path d="M2316 7818 c3 -5 10 -6 15 -3 13 9 11 12 -6 12 -8 0 -12 -4 -9 -9z"/>
<path d="M2270 7740 c-9 -6 -10 -10 -3 -10 6 0 15 5 18 10 8 12 4 12 -15 0z"/>
<path d="M7506 7718 c3 -4 9 -8 15 -8 5 0 9 4 9 8 0 5 -7 9 -15 9 -8 0 -12 -4
-9 -9z"/>
<path d="M2254 7671 c4 -6 0 -14 -8 -17 -9 -3 -16 -10 -16 -15 0 -15 15 -10
27 11 9 14 10 21 1 26 -7 4 -8 3 -4 -5z"/>
<path d="M2155 7480 c-3 -5 -1 -10 4 -10 6 0 11 5 11 10 0 6 -2 10 -4 10 -3 0
-8 -4 -11 -10z"/>
<path d="M2194 7385 c-9 -22 1 -29 15 -11 8 10 9 16 1 21 -5 3 -13 -1 -16 -10z"/>
<path d="M2175 7320 c-3 -5 -2 -10 4 -10 5 0 13 5 16 10 3 6 2 10 -4 10 -5 0
-13 -4 -16 -10z"/>
<path d="M7623 7253 c2 -12 6 -25 10 -28 4 -3 5 -2 2 2 -3 3 0 12 7 20 6 7 8
16 4 20 -3 3 -6 0 -6 -8 0 -12 -2 -11 -10 1 -8 12 -9 10 -7 -7z"/>
<path d="M2246 7201 c-14 -15 -15 -21 -4 -27 7 -4 10 -3 5 1 -4 5 0 17 10 27
9 10 14 18 11 18 -3 0 -13 -9 -22 -19z"/>
<path d="M2177 6953 c-10 -9 -9 -23 1 -23 5 0 9 7 9 15 0 17 -1 18 -10 8z"/>
<path d="M7717 6833 c3 -7 6 -13 8 -13 2 0 5 6 8 13 3 8 -1 14 -8 14 -7 0 -11
-6 -8 -14z"/>
<path d="M2170 6761 c0 -6 4 -13 10 -16 6 -3 7 1 4 9 -7 18 -14 21 -14 7z"/>
<path d="M2166 6662 c-3 -5 1 -9 9 -9 8 0 12 4 9 9 -3 4 -7 8 -9 8 -2 0 -6 -4
-9 -8z"/>
<path d="M2153 6485 c0 -8 4 -15 9 -15 4 0 8 4 8 9 0 6 -4 12 -8 15 -5 3 -9
-1 -9 -9z"/>
<path d="M2157 6335 c-4 -8 -3 -16 1 -19 4 -3 9 4 9 15 2 23 -3 25 -10 4z"/>
<path d="M7755 6161 c-3 -5 0 -13 6 -17 7 -4 9 -3 5 4 -3 5 0 13 6 15 9 4 10
6 1 6 -6 1 -14 -3 -18 -8z"/>
<path d="M2204 6119 c0 -13 3 -15 13 -7 7 6 13 12 13 13 0 2 -6 5 -13 8 -7 3
-13 -3 -13 -14z"/>
<path d="M7726 6032 c-3 -5 1 -9 9 -9 8 0 12 4 9 9 -3 4 -7 8 -9 8 -2 0 -6 -4
-9 -8z"/>
<path d="M7726 5998 c3 -5 10 -6 15 -3 13 9 11 12 -6 12 -8 0 -12 -4 -9 -9z"/>
<path d="M2233 5965 c0 -8 7 -15 15 -15 12 0 12 3 2 15 -7 8 -13 15 -15 15 -1
0 -2 -7 -2 -15z"/>
<path d="M2257 5779 c7 -7 15 -10 18 -7 3 3 -2 9 -12 12 -14 6 -15 5 -6 -5z"/>
<path d="M7667 5749 c7 -7 15 -10 18 -7 3 3 -2 9 -12 12 -14 6 -15 5 -6 -5z"/>
<path d="M7599 5533 c-13 -15 -12 -15 9 -4 23 12 28 21 13 21 -5 0 -15 -7 -22
-17z"/>
<path d="M2350 5519 c0 -5 5 -7 10 -4 6 3 10 8 10 11 0 2 -4 4 -10 4 -5 0 -10
-5 -10 -11z"/>
<path d="M2070 5515 c0 -7 30 -13 34 -7 3 4 -4 9 -15 9 -10 1 -19 0 -19 -2z"/>
<path d="M2336 5465 c-3 -8 -1 -15 4 -15 6 0 10 7 10 15 0 8 -2 15 -4 15 -2 0
-6 -7 -10 -15z"/>
<path d="M2245 5460 c3 -5 11 -10 16 -10 6 0 7 5 4 10 -3 6 -11 10 -16 10 -6
0 -7 -4 -4 -10z"/>
<path d="M2295 5449 c-4 -6 -5 -12 -2 -15 2 -3 7 2 10 11 7 17 1 20 -8 4z"/>
<path d="M7600 5433 c5 -2 8 -9 4 -14 -3 -5 0 -9 6 -9 15 0 7 23 -8 26 -7 1
-8 0 -2 -3z"/>
<path d="M7616 5384 c-8 -21 -8 -21 8 -21 8 0 11 8 8 19 -5 22 -8 23 -16 2z"/>
<path d="M7655 5379 c-11 -17 1 -21 15 -4 8 9 8 15 2 15 -6 0 -14 -5 -17 -11z"/>
<path d="M1959 5301 c9 -6 10 -10 2 -14 -8 -4 -8 -5 1 -3 20 4 21 26 1 26 -14
0 -15 -2 -4 -9z"/>
<path d="M2013 4885 c0 -8 4 -12 9 -9 5 3 6 10 3 15 -9 13 -12 11 -12 -6z"/>
<path d="M2027 4799 c7 -7 15 -10 18 -7 3 3 -2 9 -12 12 -14 6 -15 5 -6 -5z"/>
<path d="M2038 4763 c7 -3 16 -2 19 1 4 3 -2 6 -13 5 -11 0 -14 -3 -6 -6z"/>
<path d="M2054 4636 c1 -8 5 -18 8 -22 4 -3 5 1 4 10 -1 8 -5 18 -8 22 -4 3
-5 -1 -4 -10z"/>
<path d="M2103 4485 c0 -8 4 -12 9 -9 5 3 6 10 3 15 -9 13 -12 11 -12 -6z"/>
<path d="M7875 4441 c-3 -5 -2 -12 3 -15 5 -3 9 1 9 9 0 17 -3 19 -12 6z"/>
<path d="M2308 3963 c7 -3 16 -2 19 1 4 3 -2 6 -13 5 -11 0 -14 -3 -6 -6z"/>
<path d="M6965 2441 c-6 -11 13 -26 22 -17 4 3 1 6 -6 6 -7 0 -9 5 -6 10 3 6
4 10 1 10 -3 0 -7 -4 -11 -9z"/>
<path d="M2919 1992 c9 -7 10 -12 2 -16 -15 -10 -14 -29 2 -23 17 5 15 39 -3
44 -12 4 -12 3 -1 -5z"/>
<path d="M6956 1893 c-6 -14 -5 -15 5 -6 7 7 10 15 7 18 -3 3 -9 -2 -12 -12z"/>
<path d="M7000 1336 c0 -2 8 -10 18 -17 15 -13 16 -12 3 4 -13 16 -21 21 -21
13z"/>
<path d="M2670 1100 c0 -5 5 -10 10 -10 6 0 10 5 10 10 0 6 -4 10 -10 10 -5 0
-10 -4 -10 -10z"/>
<path d="M7632 991 c-11 -7 -11 -9 0 -14 9 -3 15 1 15 9 0 8 -1 14 -1 14 -1 0
-7 -4 -14 -9z"/>
<path d="M2456 981 c-4 -5 -2 -12 3 -15 5 -4 12 -2 15 3 4 5 2 12 -3 15 -5 4
-12 2 -15 -3z"/>
<path d="M2282 854 c-7 -8 -8 -14 -3 -14 10 0 25 19 20 25 -2 1 -10 -3 -17
-11z"/>
<path d="M7946 828 c3 -4 9 -8 15 -8 5 0 9 4 9 8 0 5 -7 9 -15 9 -8 0 -12 -4
-9 -9z"/>
<path d="M1880 621 c0 -6 4 -13 10 -16 6 -3 7 1 4 9 -7 18 -14 21 -14 7z"/>
</g>
</svg>
